<svg xmlns="http://www.w3.org/2000/svg" version="1.1" xmlns:xlink="http://www.w3.org/1999/xlink" xmlns:svgjs="http://svgjs.dev/svgjs" width="1500" height="1500" viewBox="0 0 1500 1500"><rect width="1500" height="1500" fill="#f9f9f9"></rect><g transform="matrix(0.6666666666666666,0,0,0.6666666666666666,249.39393939393943,570.1002154819448)"><svg viewBox="0 0 396 143" data-background-color="#f9f9f9" preserveAspectRatio="xMidYMid meet" height="541" width="1500" xmlns="http://www.w3.org/2000/svg" xmlns:xlink="http://www.w3.org/1999/xlink"><g id="tight-bounds" transform="matrix(1,0,0,1,0.2400000000000091,-0.171896896260904)"><svg viewBox="0 0 395.52 143.34379379252178" height="143.34379379252178" width="395.52"><g><svg viewBox="0 0 674.4449058403786 244.43135999999998" height="143.34379379252178" width="395.52"><g transform="matrix(1,0,0,1,278.92490584037864,76.66451091209761)"><svg viewBox="0 0 395.52 91.10233817580476" height="91.10233817580476" width="395.52"><g id="textblocktransform"><svg viewBox="0 0 395.52 91.10233817580476" height="91.10233817580476" width="395.52" id="textblock"><g><svg viewBox="0 0 395.52 58.44481580572133" height="58.44481580572133" width="395.52"><g transform="matrix(1,0,0,1,0,0)"><svg width="395.52" viewBox="1 -35.4 242.93 35.9" height="58.44481580572133" data-palette-color="#030303"><path d="M20 0L11 0 11-27.4 1-26.9 1-35.4 30.25-35.4 30.25-26.9 20-27.4 20-8 20.55-3 20 0ZM41.2 0L32.3 0 32.3-15.65 31.25-20.65 32.3-23.65 39.1-23.65 40.1-22.5Q40.1-22.5 40.8-22.93 41.5-23.35 42.77-23.75 44.05-24.15 45.75-24.15L45.75-24.15Q46.75-24.15 47.75-24 48.75-23.85 49.3-23.6L49.3-23.6 52.55-20.85 49.3-14.45 42.7-17.2 41.2-16.7 41.2 0ZM60.55 0.5L60.55 0.5Q58.4 0.5 56.57-0.13 54.75-0.75 53.65-2.3 52.55-3.85 52.55-6.6L52.55-6.6Q52.55-9.1 53.8-10.75 55.05-12.4 57.2-13.2 59.34-14 62.05-14L62.05-14Q64.65-14 65.95-13.43 67.25-12.85 68.2-12.25L68.2-12.25 68.55-12.55Q68.55-14.05 68.3-15.05 68.05-16.05 67.15-16.57 66.25-17.1 64.34-17.1L64.34-17.1Q62.5-17.1 60.42-16.78 58.34-16.45 56.62-15.98 54.9-15.5 54.05-15.05L54.05-15.05 54.05-22.55Q55.59-23.1 58.47-23.58 61.34-24.05 65.55-24.05L65.55-24.05Q70.05-24.05 72.67-22.93 75.3-21.8 76.45-19.68 77.59-17.55 77.59-14.6L77.59-14.6 77.59-7.95 78.59-2.9 77.59 0.05 69.05 0.05 69.05-2.4 68.55-2.65Q68.15-2.25 67.15-1.5 66.15-0.75 64.5-0.13 62.84 0.5 60.55 0.5ZM64.8-6.05L64.8-6.05Q66.15-6.05 67.12-6.3 68.09-6.55 68.55-6.75L68.55-6.75 68.55-7.7Q68.55-8.35 67.62-8.95 66.7-9.55 64.75-9.55L64.75-9.55Q62.05-9.55 62.05-7.65L62.05-7.65Q62.05-6.85 62.65-6.45 63.25-6.05 64.8-6.05ZM98.89 0L88.39 0 82.09-17.1 81.09-23.6 90.59-23.6 93.34-8 94.34-8 97.14-23.6 106.59-23.6 105.59-17.1 98.89 0ZM120.59 0.5L120.59 0.5Q116.74 0.5 113.74-0.65 110.74-1.8 109.04-4.5 107.34-7.2 107.34-11.8L107.34-11.8Q107.34-15.1 108.47-17.45 109.59-19.8 111.49-21.28 113.39-22.75 115.74-23.43 118.09-24.1 120.59-24.1L120.59-24.1Q124.89-24.1 127.22-23.25 129.54-22.4 130.29-21.9L130.29-21.9 132.79-13.95 131.79-10.85 116.29-10.85Q116.64-9 118.14-7.75 119.64-6.5 123.09-6.5L123.09-6.5Q125.79-6.5 127.74-7.1 129.69-7.7 130.79-8.15L130.79-8.15 130.79-1.45Q129.29-0.65 126.47-0.08 123.64 0.5 120.59 0.5ZM116.34-14.05L116.34-14.05 123.24-15.05 122.79-17.2Q122.44-17.4 121.77-17.5 121.09-17.6 120.59-17.6L120.59-17.6Q119.19-17.6 118.27-17 117.34-16.4 116.87-15.58 116.39-14.75 116.34-14.05ZM146.04 0L137.04 0 136.99-27.4 135.99-32.4 137.04-35.4 146.04-35.4 146.04 0ZM162.04 0L152.54 0 152.54-27.35 152.04-32.35 152.54-35.4 161.54-35.4 161.54-21.85 173.99-21.85 173.99-35.4 182.99-35.4 182.99-16.6 183.49-13.15 183.49 0 173.99 0 173.99-13.2 161.54-13.2 161.54-10.2 162.04 0ZM195.98 0.5L195.98 0.5Q192.98 0.5 191.36-0.65 189.73-1.8 189.11-3.98 188.48-6.15 188.48-9.2L188.48-9.2 188.48-23.65 197.48-23.65 197.48-10.5Q197.48-8.65 198.21-7.6 198.93-6.55 200.38-6.55L200.38-6.55Q201.73-6.55 202.86-7.7 203.98-8.85 203.98-11.05L203.98-11.05 203.98-23.65 212.98-23.65 212.98-8.05 214.03-3.05 212.98 0 204.53 0 204.53-2.45 204.03-2.7Q203.38-2.05 202.16-1.3 200.93-0.55 199.36-0.03 197.78 0.5 195.98 0.5ZM234.43 0.5L234.43 0.5Q232.03 0.5 230.61 0.08 229.18-0.35 228.53-0.78 227.88-1.2 227.88-1.2L227.88-1.2 227.88 0.05 218.88 0.05 218.88-27.35 217.83-32.35 218.88-35.35 227.88-35.35 227.88-27.3 227.38-21.65 227.88-21.4Q228.88-22.35 230.36-23.23 231.83-24.1 234.43-24.1L234.43-24.1Q238.88-24.1 241.41-21.25 243.93-18.4 243.93-12.25L243.93-12.25Q243.93-7.65 242.66-4.83 241.38-2 239.23-0.75 237.08 0.5 234.43 0.5ZM230.18-6.35L230.18-6.35Q232.13-6.35 233.28-7.73 234.43-9.1 234.43-11.85L234.43-11.85Q234.43-14.55 233.48-15.78 232.53-17 230.68-17L230.68-17 227.88-15.95 227.88-7Q227.88-7 228.41-6.68 228.93-6.35 230.18-6.35Z" opacity="1" transform="matrix(1,0,0,1,0,0)" fill="#030303" class="wordmark-text-0" data-fill-palette-color="primary" id="text-0"></path></svg></g></svg></g><g transform="matrix(1,0,0,1,163.310208,72.2422341418728)"><svg viewBox="0 0 232.209792 18.860104033931954" height="18.860104033931954" width="232.209792"><g transform="matrix(1,0,0,1,0,0)"><svg width="232.209792" viewBox="4.35 -35.5 554 45" height="18.860104033931954" data-palette-color="#030303"><path d="M26.55 0L5.5 0Q4.95 0 4.65-0.33 4.35-0.65 4.35-1.15L4.35-1.15 4.35-33.8Q4.35-34.35 4.65-34.68 4.95-35 5.5-35L5.5-35 26.15-35Q26.7-35 27-34.68 27.3-34.35 27.3-33.8L27.3-33.8 27.3-31.9Q27.3-31.35 27-31.05 26.7-30.75 26.15-30.75L26.15-30.75 9.15-30.75 9.15-19.8 25.05-19.8Q25.6-19.8 25.9-19.48 26.2-19.15 26.2-18.6L26.2-18.6 26.2-16.75Q26.2-16.25 25.9-15.93 25.6-15.6 25.05-15.6L25.05-15.6 9.15-15.6 9.15-4.25 26.55-4.25Q27.1-4.25 27.4-3.95 27.7-3.65 27.7-3.1L27.7-3.1 27.7-1.15Q27.7-0.65 27.4-0.33 27.1 0 26.55 0L26.55 0ZM35.35 0L32.8 0Q32.4 0 32.07-0.3 31.75-0.6 31.75-1.05L31.75-1.05Q31.75-1.2 31.82-1.43 31.9-1.65 32.1-1.95L32.1-1.95 40.8-13.3 32.65-24.05Q32.45-24.35 32.37-24.55 32.3-24.75 32.3-24.95L32.3-24.95Q32.3-25.4 32.6-25.7 32.9-26 33.35-26L33.35-26 35.9-26Q36.45-26 36.75-25.73 37.05-25.45 37.2-25.2L37.2-25.2 43.85-16.55 50.5-25.15Q50.7-25.4 50.97-25.7 51.25-26 51.8-26L51.8-26 54.25-26Q54.7-26 55-25.7 55.3-25.4 55.3-24.95L55.3-24.95Q55.3-24.75 55.22-24.55 55.15-24.35 54.95-24.05L54.95-24.05 46.7-13.2 55.4-1.95Q55.6-1.65 55.67-1.45 55.75-1.25 55.75-1.05L55.75-1.05Q55.75-0.6 55.45-0.3 55.15 0 54.7 0L54.7 0 52.05 0Q51.55 0 51.25-0.25 50.95-0.5 50.75-0.75L50.75-0.75 43.75-9.9 36.65-0.75Q36.45-0.55 36.17-0.28 35.9 0 35.35 0L35.35 0ZM64.59 9.5L62.15 9.5Q61.65 9.5 61.32 9.18 61 8.85 61 8.35L61 8.35 61-24.85Q61-25.35 61.32-25.68 61.65-26 62.15-26L62.15-26 64.45-26Q64.95-26 65.27-25.68 65.59-25.35 65.59-24.85L65.59-24.85 65.59-22.65Q66.8-24.3 68.8-25.4 70.8-26.5 73.8-26.5L73.8-26.5Q76.59-26.5 78.57-25.55 80.55-24.6 81.82-22.95 83.09-21.3 83.75-19.2 84.4-17.1 84.5-14.7L84.5-14.7Q84.55-13.9 84.55-13 84.55-12.1 84.5-11.3L84.5-11.3Q84.4-8.95 83.75-6.83 83.09-4.7 81.82-3.08 80.55-1.45 78.57-0.48 76.59 0.5 73.8 0.5L73.8 0.5Q70.9 0.5 68.92-0.58 66.95-1.65 65.7-3.25L65.7-3.25 65.7 8.35Q65.7 8.85 65.4 9.18 65.09 9.5 64.59 9.5L64.59 9.5ZM72.75-3.55L72.75-3.55Q75.34-3.55 76.82-4.67 78.3-5.8 78.95-7.63 79.59-9.45 79.7-11.55L79.7-11.55Q79.75-13 79.7-14.45L79.7-14.45Q79.59-16.55 78.95-18.38 78.3-20.2 76.82-21.33 75.34-22.45 72.75-22.45L72.75-22.45Q70.3-22.45 68.77-21.3 67.25-20.15 66.52-18.38 65.8-16.6 65.7-14.75L65.7-14.75Q65.65-13.95 65.65-12.85 65.65-11.75 65.7-10.9L65.7-10.9Q65.75-9.15 66.52-7.45 67.3-5.75 68.84-4.65 70.4-3.55 72.75-3.55ZM94.29 0L91.94 0Q91.44 0 91.12-0.33 90.79-0.65 90.79-1.15L90.79-1.15 90.79-34.35Q90.79-34.85 91.12-35.18 91.44-35.5 91.94-35.5L91.94-35.5 94.29-35.5Q94.84-35.5 95.14-35.18 95.44-34.85 95.44-34.35L95.44-34.35 95.44-1.15Q95.44-0.65 95.14-0.33 94.84 0 94.29 0L94.29 0ZM113.54 0.5L113.54 0.5Q109.74 0.5 107.19-0.95 104.64-2.4 103.29-4.98 101.94-7.55 101.79-10.85L101.79-10.85Q101.74-11.7 101.74-13.03 101.74-14.35 101.79-15.15L101.79-15.15Q101.94-18.5 103.32-21.05 104.69-23.6 107.24-25.05 109.79-26.5 113.54-26.5L113.54-26.5Q117.29-26.5 119.84-25.05 122.39-23.6 123.77-21.05 125.14-18.5 125.29-15.15L125.29-15.15Q125.34-14.35 125.34-13.03 125.34-11.7 125.29-10.85L125.29-10.85Q125.14-7.55 123.79-4.98 122.44-2.4 119.89-0.95 117.34 0.5 113.54 0.5ZM113.54-3.35L113.54-3.35Q116.64-3.35 118.49-5.33 120.34-7.3 120.49-11.1L120.49-11.1Q120.54-11.85 120.54-13 120.54-14.15 120.49-14.9L120.49-14.9Q120.34-18.7 118.49-20.68 116.64-22.65 113.54-22.65L113.54-22.65Q110.44-22.65 108.57-20.68 106.69-18.7 106.59-14.9L106.59-14.9Q106.54-14.15 106.54-13 106.54-11.85 106.59-11.1L106.59-11.1Q106.69-7.3 108.57-5.33 110.44-3.35 113.54-3.35ZM135.19 0L132.74 0Q132.24 0 131.91-0.33 131.59-0.65 131.59-1.15L131.59-1.15 131.59-24.8Q131.59-25.3 131.91-25.65 132.24-26 132.74-26L132.74-26 135.04-26Q135.54-26 135.89-25.65 136.24-25.3 136.24-24.8L136.24-24.8 136.24-22.6Q137.24-24.3 138.99-25.15 140.74-26 143.24-26L143.24-26 145.19-26Q145.69-26 146.01-25.68 146.34-25.35 146.34-24.85L146.34-24.85 146.34-22.8Q146.34-22.3 146.01-22 145.69-21.7 145.19-21.7L145.19-21.7 142.19-21.7Q139.49-21.7 137.94-20.13 136.39-18.55 136.39-15.85L136.39-15.85 136.39-1.15Q136.39-0.65 136.04-0.33 135.69 0 135.19 0L135.19 0ZM160.99 0.5L160.99 0.5Q155.79 0.5 152.74-2.68 149.69-5.85 149.39-11.35L149.39-11.35Q149.34-12 149.34-13.03 149.34-14.05 149.39-14.7L149.39-14.7Q149.59-18.25 151.04-20.93 152.49-23.6 155.01-25.05 157.54-26.5 160.94-26.5L160.94-26.5Q164.74-26.5 167.31-24.9 169.89-23.3 171.24-20.35 172.59-17.4 172.59-13.45L172.59-13.45 172.59-12.6Q172.59-12.05 172.26-11.75 171.94-11.45 171.44-11.45L171.44-11.45 154.14-11.45Q154.14-11.4 154.14-11.25 154.14-11.1 154.14-11L154.14-11Q154.24-8.95 155.04-7.18 155.84-5.4 157.36-4.3 158.89-3.2 160.94-3.2L160.94-3.2Q162.74-3.2 163.94-3.75 165.14-4.3 165.89-4.98 166.64-5.65 166.89-6.05L166.89-6.05Q167.34-6.65 167.59-6.78 167.84-6.9 168.39-6.9L168.39-6.9 170.84-6.9Q171.29-6.9 171.61-6.63 171.94-6.35 171.89-5.85L171.89-5.85Q171.84-5.1 171.09-4.03 170.34-2.95 168.96-1.9 167.59-0.85 165.56-0.18 163.54 0.5 160.99 0.5ZM154.14-15.05L154.14-14.9 167.84-14.9 167.84-15.05Q167.84-17.3 167.01-19.05 166.19-20.8 164.64-21.83 163.09-22.85 160.94-22.85L160.94-22.85Q158.79-22.85 157.26-21.83 155.74-20.8 154.94-19.05 154.14-17.3 154.14-15.05L154.14-15.05ZM206.73 0L192.63 0Q192.08 0 191.78-0.33 191.48-0.65 191.48-1.15L191.48-1.15 191.48-33.8Q191.48-34.35 191.78-34.68 192.08-35 192.63-35L192.63-35 206.33-35Q210.08-35 212.46-33.77 214.83-32.55 215.96-30.45 217.08-28.35 217.08-25.75L217.08-25.75Q217.08-23.7 216.41-22.23 215.73-20.75 214.73-19.83 213.73-18.9 212.78-18.4L212.78-18.4Q214.73-17.45 216.26-15.3 217.78-13.15 217.78-10.1L217.78-10.1Q217.78-7.35 216.53-5.05 215.28-2.75 212.81-1.38 210.33 0 206.73 0L206.73 0ZM196.38-16.2L196.38-4.05 206.08-4.05Q209.28-4.05 211.03-5.8 212.78-7.55 212.78-10.1L212.78-10.1Q212.78-12.75 211.03-14.48 209.28-16.2 206.08-16.2L206.08-16.2 196.38-16.2ZM196.38-30.95L196.38-20.2 205.58-20.2Q208.78-20.2 210.43-21.68 212.08-23.15 212.08-25.7L212.08-25.7Q212.08-28.25 210.43-29.6 208.78-30.95 205.58-30.95L205.58-30.95 196.38-30.95ZM234.63 0.5L234.63 0.5Q229.43 0.5 226.38-2.68 223.33-5.85 223.03-11.35L223.03-11.35Q222.98-12 222.98-13.03 222.98-14.05 223.03-14.7L223.03-14.7Q223.23-18.25 224.68-20.93 226.13-23.6 228.65-25.05 231.18-26.5 234.58-26.5L234.58-26.5Q238.38-26.5 240.95-24.9 243.53-23.3 244.88-20.35 246.23-17.4 246.23-13.45L246.23-13.45 246.23-12.6Q246.23-12.05 245.9-11.75 245.58-11.45 245.08-11.45L245.08-11.45 227.78-11.45Q227.78-11.4 227.78-11.25 227.78-11.1 227.78-11L227.78-11Q227.88-8.95 228.68-7.18 229.48-5.4 231-4.3 232.53-3.2 234.58-3.2L234.58-3.2Q236.38-3.2 237.58-3.75 238.78-4.3 239.53-4.98 240.28-5.65 240.53-6.05L240.53-6.05Q240.98-6.65 241.23-6.78 241.48-6.9 242.03-6.9L242.03-6.9 244.48-6.9Q244.93-6.9 245.25-6.63 245.58-6.35 245.53-5.85L245.53-5.85Q245.48-5.1 244.73-4.03 243.98-2.95 242.6-1.9 241.23-0.85 239.2-0.18 237.18 0.5 234.63 0.5ZM227.78-15.05L227.78-14.9 241.48-14.9 241.48-15.05Q241.48-17.3 240.65-19.05 239.83-20.8 238.28-21.83 236.73-22.85 234.58-22.85L234.58-22.85Q232.43-22.85 230.9-21.83 229.38-20.8 228.58-19.05 227.78-17.3 227.78-15.05L227.78-15.05ZM259.13 9.5L256.78 9.5Q256.38 9.5 256.08 9.2 255.78 8.9 255.78 8.5L255.78 8.5Q255.78 8.3 255.83 8.1 255.88 7.9 256.03 7.6L256.03 7.6 259.88-1.55 250.33-24.1Q250.08-24.7 250.08-24.95L250.08-24.95Q250.08-25.4 250.38-25.7 250.68-26 251.13-26L251.13-26 253.58-26Q254.13-26 254.38-25.75 254.63-25.5 254.78-25.15L254.78-25.15 262.38-6.95 270.18-25.15Q270.33-25.5 270.6-25.75 270.88-26 271.43-26L271.43-26 273.78-26Q274.23-26 274.53-25.7 274.83-25.4 274.83-25L274.83-25Q274.83-24.75 274.58-24.1L274.58-24.1 260.38 8.65Q260.23 9 259.95 9.25 259.68 9.5 259.13 9.5L259.13 9.5ZM290.47 0.5L290.47 0.5Q286.67 0.5 284.12-0.95 281.57-2.4 280.22-4.98 278.87-7.55 278.72-10.85L278.72-10.85Q278.67-11.7 278.67-13.03 278.67-14.35 278.72-15.15L278.72-15.15Q278.87-18.5 280.25-21.05 281.62-23.6 284.17-25.05 286.72-26.5 290.47-26.5L290.47-26.5Q294.22-26.5 296.77-25.05 299.32-23.6 300.7-21.05 302.07-18.5 302.22-15.15L302.22-15.15Q302.27-14.35 302.27-13.03 302.27-11.7 302.22-10.85L302.22-10.85Q302.07-7.55 300.72-4.98 299.37-2.4 296.82-0.95 294.27 0.5 290.47 0.5ZM290.47-3.35L290.47-3.35Q293.57-3.35 295.42-5.33 297.27-7.3 297.42-11.1L297.42-11.1Q297.47-11.85 297.47-13 297.47-14.15 297.42-14.9L297.42-14.9Q297.27-18.7 295.42-20.68 293.57-22.65 290.47-22.65L290.47-22.65Q287.37-22.65 285.5-20.68 283.62-18.7 283.52-14.9L283.52-14.9Q283.47-14.15 283.47-13 283.47-11.85 283.52-11.1L283.52-11.1Q283.62-7.3 285.5-5.33 287.37-3.35 290.47-3.35ZM312.17 0L309.67 0Q309.17 0 308.85-0.33 308.52-0.65 308.52-1.15L308.52-1.15 308.52-24.85Q308.52-25.35 308.85-25.68 309.17-26 309.67-26L309.67-26 312.02-26Q312.52-26 312.85-25.68 313.17-25.35 313.17-24.85L313.17-24.85 313.17-22.65Q314.47-24.35 316.45-25.43 318.42-26.5 321.52-26.5L321.52-26.5Q324.77-26.5 327.05-25.08 329.32-23.65 330.5-21.13 331.67-18.6 331.67-15.25L331.67-15.25 331.67-1.15Q331.67-0.65 331.35-0.33 331.02 0 330.52 0L330.52 0 328.02 0Q327.52 0 327.2-0.33 326.87-0.65 326.87-1.15L326.87-1.15 326.87-15Q326.87-18.5 325.17-20.48 323.47-22.45 320.17-22.45L320.17-22.45Q317.07-22.45 315.2-20.48 313.32-18.5 313.32-15L313.32-15 313.32-1.15Q313.32-0.65 313-0.33 312.67 0 312.17 0L312.17 0ZM348.32 0.5L348.32 0.5Q345.57 0.5 343.57-0.48 341.57-1.45 340.29-3.13 339.02-4.8 338.39-6.95 337.77-9.1 337.67-11.5L337.67-11.5Q337.62-12.3 337.62-13 337.62-13.7 337.67-14.5L337.67-14.5Q337.77-16.85 338.39-19 339.02-21.15 340.29-22.85 341.57-24.55 343.57-25.53 345.57-26.5 348.32-26.5L348.32-26.5Q351.27-26.5 353.22-25.45 355.17-24.4 356.42-22.85L356.42-22.85 356.42-34.35Q356.42-34.85 356.74-35.18 357.07-35.5 357.57-35.5L357.57-35.5 359.97-35.5Q360.47-35.5 360.79-35.18 361.12-34.85 361.12-34.35L361.12-34.35 361.12-1.15Q361.12-0.65 360.79-0.33 360.47 0 359.97 0L359.97 0 357.72 0Q357.17 0 356.87-0.33 356.57-0.65 356.57-1.15L356.57-1.15 356.57-3.25Q355.32-1.65 353.32-0.58 351.32 0.5 348.32 0.5ZM349.37-3.55L349.37-3.55Q351.87-3.55 353.37-4.7 354.87-5.85 355.62-7.63 356.37-9.4 356.42-11.25L356.42-11.25Q356.47-12.05 356.47-13.18 356.47-14.3 356.42-15.1L356.42-15.1Q356.37-16.85 355.59-18.55 354.82-20.25 353.29-21.35 351.77-22.45 349.37-22.45L349.37-22.45Q346.82-22.45 345.32-21.33 343.82-20.2 343.17-18.38 342.52-16.55 342.42-14.45L342.42-14.45Q342.37-13 342.42-11.55L342.42-11.55Q342.52-9.45 343.17-7.63 343.82-5.8 345.32-4.67 346.82-3.55 349.37-3.55ZM396.71 0L382.61 0Q382.06 0 381.76-0.33 381.46-0.65 381.46-1.15L381.46-1.15 381.46-33.8Q381.46-34.35 381.76-34.68 382.06-35 382.61-35L382.61-35 396.31-35Q400.06-35 402.44-33.77 404.81-32.55 405.94-30.45 407.06-28.35 407.06-25.75L407.06-25.75Q407.06-23.7 406.39-22.23 405.71-20.75 404.71-19.83 403.71-18.9 402.76-18.4L402.76-18.4Q404.71-17.45 406.24-15.3 407.76-13.15 407.76-10.1L407.76-10.1Q407.76-7.35 406.51-5.05 405.26-2.75 402.79-1.38 400.31 0 396.71 0L396.71 0ZM386.36-16.2L386.36-4.05 396.06-4.05Q399.26-4.05 401.01-5.8 402.76-7.55 402.76-10.1L402.76-10.1Q402.76-12.75 401.01-14.48 399.26-16.2 396.06-16.2L396.06-16.2 386.36-16.2ZM386.36-30.95L386.36-20.2 395.56-20.2Q398.76-20.2 400.41-21.68 402.06-23.15 402.06-25.7L402.06-25.7Q402.06-28.25 400.41-29.6 398.76-30.95 395.56-30.95L395.56-30.95 386.36-30.95ZM424.86 0.5L424.86 0.5Q421.06 0.5 418.51-0.95 415.96-2.4 414.61-4.98 413.26-7.55 413.11-10.85L413.11-10.85Q413.06-11.7 413.06-13.03 413.06-14.35 413.11-15.15L413.11-15.15Q413.26-18.5 414.64-21.05 416.01-23.6 418.56-25.05 421.11-26.5 424.86-26.5L424.86-26.5Q428.61-26.5 431.16-25.05 433.71-23.6 435.09-21.05 436.46-18.5 436.61-15.15L436.61-15.15Q436.66-14.35 436.66-13.03 436.66-11.7 436.61-10.85L436.61-10.85Q436.46-7.55 435.11-4.98 433.76-2.4 431.21-0.95 428.66 0.5 424.86 0.5ZM424.86-3.35L424.86-3.35Q427.96-3.35 429.81-5.33 431.66-7.3 431.81-11.1L431.81-11.1Q431.86-11.85 431.86-13 431.86-14.15 431.81-14.9L431.81-14.9Q431.66-18.7 429.81-20.68 427.96-22.65 424.86-22.65L424.86-22.65Q421.76-22.65 419.89-20.68 418.01-18.7 417.91-14.9L417.91-14.9Q417.86-14.15 417.86-13 417.86-11.85 417.91-11.1L417.91-11.1Q418.01-7.3 419.89-5.33 421.76-3.35 424.86-3.35ZM446.51 0L444.06 0Q443.56 0 443.23-0.33 442.91-0.65 442.91-1.15L442.91-1.15 442.91-24.8Q442.91-25.3 443.23-25.65 443.56-26 444.06-26L444.06-26 446.36-26Q446.86-26 447.21-25.65 447.56-25.3 447.56-24.8L447.56-24.8 447.56-22.6Q448.56-24.3 450.31-25.15 452.06-26 454.56-26L454.56-26 456.51-26Q457.01-26 457.33-25.68 457.66-25.35 457.66-24.85L457.66-24.85 457.66-22.8Q457.66-22.3 457.33-22 457.01-21.7 456.51-21.7L456.51-21.7 453.51-21.7Q450.81-21.7 449.26-20.13 447.71-18.55 447.71-15.85L447.71-15.85 447.71-1.15Q447.71-0.65 447.36-0.33 447.01 0 446.51 0L446.51 0ZM471.41 0.5L471.41 0.5Q468.66 0.5 466.66-0.48 464.66-1.45 463.38-3.13 462.11-4.8 461.48-6.95 460.86-9.1 460.76-11.5L460.76-11.5Q460.71-12.3 460.71-13 460.71-13.7 460.76-14.5L460.76-14.5Q460.86-16.85 461.48-19 462.11-21.15 463.38-22.85 464.66-24.55 466.66-25.53 468.66-26.5 471.41-26.5L471.41-26.5Q474.36-26.5 476.31-25.45 478.26-24.4 479.51-22.85L479.51-22.85 479.51-34.35Q479.51-34.85 479.83-35.18 480.16-35.5 480.66-35.5L480.66-35.5 483.06-35.5Q483.56-35.5 483.88-35.18 484.21-34.85 484.21-34.35L484.21-34.35 484.21-1.15Q484.21-0.65 483.88-0.33 483.56 0 483.06 0L483.06 0 480.81 0Q480.26 0 479.96-0.33 479.66-0.65 479.66-1.15L479.66-1.15 479.66-3.25Q478.41-1.65 476.41-0.58 474.41 0.5 471.41 0.5ZM472.46-3.55L472.46-3.55Q474.96-3.55 476.46-4.7 477.96-5.85 478.71-7.63 479.46-9.4 479.51-11.25L479.51-11.25Q479.56-12.05 479.56-13.18 479.56-14.3 479.51-15.1L479.51-15.1Q479.46-16.85 478.68-18.55 477.91-20.25 476.38-21.35 474.86-22.45 472.46-22.45L472.46-22.45Q469.91-22.45 468.41-21.33 466.91-20.2 466.26-18.38 465.61-16.55 465.51-14.45L465.51-14.45Q465.46-13 465.51-11.55L465.51-11.55Q465.61-9.45 466.26-7.63 466.91-5.8 468.41-4.67 469.91-3.55 472.46-3.55ZM502.05 0.5L502.05 0.5Q496.85 0.5 493.8-2.68 490.75-5.85 490.45-11.35L490.45-11.35Q490.4-12 490.4-13.03 490.4-14.05 490.45-14.7L490.45-14.7Q490.65-18.25 492.1-20.93 493.55-23.6 496.08-25.05 498.6-26.5 502-26.5L502-26.5Q505.8-26.5 508.38-24.9 510.95-23.3 512.3-20.35 513.65-17.4 513.65-13.45L513.65-13.45 513.65-12.6Q513.65-12.05 513.33-11.75 513-11.45 512.5-11.45L512.5-11.45 495.2-11.45Q495.2-11.4 495.2-11.25 495.2-11.1 495.2-11L495.2-11Q495.3-8.95 496.1-7.18 496.9-5.4 498.43-4.3 499.95-3.2 502-3.2L502-3.2Q503.8-3.2 505-3.75 506.2-4.3 506.95-4.98 507.7-5.65 507.95-6.05L507.95-6.05Q508.4-6.65 508.65-6.78 508.9-6.9 509.45-6.9L509.45-6.9 511.9-6.9Q512.35-6.9 512.68-6.63 513-6.35 512.95-5.85L512.95-5.85Q512.9-5.1 512.15-4.03 511.4-2.95 510.03-1.9 508.65-0.85 506.63-0.18 504.6 0.5 502.05 0.5ZM495.2-15.05L495.2-14.9 508.9-14.9 508.9-15.05Q508.9-17.3 508.08-19.05 507.25-20.8 505.7-21.83 504.15-22.85 502-22.85L502-22.85Q499.85-22.85 498.33-21.83 496.8-20.8 496-19.05 495.2-17.3 495.2-15.05L495.2-15.05ZM523.25 0L520.8 0Q520.3 0 519.98-0.33 519.65-0.65 519.65-1.15L519.65-1.15 519.65-24.8Q519.65-25.3 519.98-25.65 520.3-26 520.8-26L520.8-26 523.1-26Q523.6-26 523.95-25.65 524.3-25.3 524.3-24.8L524.3-24.8 524.3-22.6Q525.3-24.3 527.05-25.15 528.8-26 531.3-26L531.3-26 533.25-26Q533.75-26 534.08-25.68 534.4-25.35 534.4-24.85L534.4-24.85 534.4-22.8Q534.4-22.3 534.08-22 533.75-21.7 533.25-21.7L533.25-21.7 530.25-21.7Q527.55-21.7 526-20.13 524.45-18.55 524.45-15.85L524.45-15.85 524.45-1.15Q524.45-0.65 524.1-0.33 523.75 0 523.25 0L523.25 0ZM547.65 0.5L547.65 0.5Q544.85 0.5 542.85-0.2 540.85-0.9 539.6-1.9 538.35-2.9 537.72-3.9 537.1-4.9 537.05-5.5L537.05-5.5Q537-6.05 537.4-6.35 537.8-6.65 538.2-6.65L538.2-6.65 540.45-6.65Q540.7-6.65 540.87-6.58 541.05-6.5 541.35-6.15L541.35-6.15Q542-5.45 542.8-4.75 543.6-4.05 544.77-3.6 545.95-3.15 547.7-3.15L547.7-3.15Q550.25-3.15 551.9-4.13 553.55-5.1 553.55-7L553.55-7Q553.55-8.25 552.87-9 552.2-9.75 550.47-10.35 548.75-10.95 545.75-11.6L545.75-11.6Q542.75-12.3 541-13.33 539.25-14.35 538.5-15.78 537.75-17.2 537.75-19L537.75-19Q537.75-20.85 538.85-22.58 539.95-24.3 542.07-25.4 544.2-26.5 547.4-26.5L547.4-26.5Q550-26.5 551.85-25.85 553.7-25.2 554.9-24.23 556.1-23.25 556.7-22.3 557.3-21.35 557.35-20.7L557.35-20.7Q557.4-20.2 557.05-19.88 556.7-19.55 556.25-19.55L556.25-19.55 554.15-19.55Q553.8-19.55 553.57-19.7 553.35-19.85 553.15-20.05L553.15-20.05Q552.65-20.7 551.97-21.35 551.3-22 550.22-22.43 549.15-22.85 547.4-22.85L547.4-22.85Q544.9-22.85 543.65-21.8 542.4-20.75 542.4-19.15L542.4-19.15Q542.4-18.2 542.95-17.45 543.5-16.7 545.05-16.1 546.6-15.5 549.65-14.8L549.65-14.8Q552.95-14.15 554.85-13.05 556.75-11.95 557.55-10.5 558.35-9.05 558.35-7.15L558.35-7.15Q558.35-5.05 557.15-3.3 555.95-1.55 553.55-0.53 551.15 0.5 547.65 0.5Z" opacity="1" transform="matrix(1,0,0,1,0,0)" fill="#030303" class="slogan-text-1" data-fill-palette-color="secondary" id="text-1"></path></svg></g></svg></g></svg></g></svg></g><g><svg viewBox="0 0 244.43135999999998 244.43135999999998" height="244.43135999999998" width="244.43135999999998"><g><svg viewBox="0 0 244.43135999999998 244.43135999999998" height="244.43135999999998" width="244.43135999999998"><g transform="matrix(1,0,0,1,64.60265593644992,76.46770080862626)"><svg viewBox="0 0 115.22604812710014 91.49595838274746" height="91.49595838274746" width="115.22604812710014"><g><svg xmlns="http://www.w3.org/2000/svg" xmlns:xlink="http://www.w3.org/1999/xlink" version="1.1" x="0" y="0" viewBox="2.635999999999997 11.36 84.727 67.278" enable-background="new 0 0 90 90" xml:space="preserve" height="91.49595838274746" width="115.22604812710014" class="icon-cg-0" data-fill-palette-color="accent" id="cg-0"><path d="M65.488 65.37c-0.571 0.471-1.272 0.724-1.988 0.741-0.424 0.009-0.85-0.063-1.255-0.223-0.492-0.195-0.905-0.517-1.24-0.899-3.28 4.264-7.92 7.411-13.282 8.8 2.99-2.082 5.463-5.671 7.121-10.209h5.453c-0.021-0.096-0.063-0.182-0.074-0.279l-0.285-2.165H55.63c0.841-2.991 1.343-6.308 1.438-9.836h1.574l-0.322-2.444h-1.252c-0.045-1.637-0.187-3.225-0.396-4.757-0.779 0.217-1.588 0.431-2.39 0.645 0.174 1.336 0.302 2.7 0.344 4.112h-8.61L45.52 51.3h9.105c-0.104 3.541-0.639 6.884-1.537 9.836H42.795v-5.401l-1.252 0.875c-0.363 0.257-0.772 0.399-1.192 0.486v4.04H30.058c-0.439-1.446-0.79-2.989-1.047-4.6-0.267 0.108-0.542 0.217-0.804 0.329-0.524 0.223-0.992 0.445-1.49 0.668 0.219 1.238 0.477 2.451 0.798 3.603h-7.807v-0.002c-0.703 0.429-1.374 0.857-1.996 1.292-0.491 0.346-0.938 0.686-1.361 1.023 4.805 9.025 14.303 15.189 25.221 15.189 10.239 0 19.208-5.433 24.25-13.549L65.488 65.37zM21.114 63.58h7.188c1.661 4.538 4.13 8.127 7.121 10.209C29.482 72.252 24.412 68.564 21.114 63.58zM40.351 73.266c-3.883-0.645-7.27-4.322-9.421-9.686h9.421V73.266zM42.795 63.58h9.421c-2.149 5.361-5.54 9.041-9.421 9.686V63.58z" fill="#030303" data-fill-palette-color="accent"></path><path d="M87.363 24.459c-3.995-2.627-12.348-0.773-21.615 2.803L49.466 11.36l-5.485 0.188L57.07 30.955c-5.385 2.476-10.719 5.232-15.396 7.779l-6.756-5.102-2.806 0.327 6.977 8.789 0.601 11.208 2.317-1.617 1.677-8.297c5.19-1.188 11.015-2.66 16.687-4.372l3.053 23.206 4.232-3.495 1.654-22.695C78.628 33.219 86.111 29.072 87.363 24.459z" fill="#030303" data-fill-palette-color="accent"></path><path d="M48.527 24.071l-1.348-1.999c-1.819-0.362-3.688-0.56-5.61-0.56-14.262 0-26.082 10.519-28.192 24.199 1.755-1.324 3.46-2.488 5.021-3.501 0.37-1.097 0.789-2.173 1.308-3.194h3.933c1.418-0.817 2.874-1.633 4.406-2.444h-6.933c3.296-4.984 8.368-8.671 14.31-10.209-1.592 1.11-3.032 2.657-4.287 4.538 0.197-0.063 0.393-0.13 0.604-0.153l2.806-0.327c0.017-0.001 0.037 0 0.052-0.001 1.697-1.917 3.647-3.184 5.752-3.532v6.794l1.615 1.221c0.282-0.151 0.549-0.284 0.829-0.435v-7.58c2.373 0.393 4.56 1.933 6.396 4.285l3.166-1.505L48.527 24.071z" fill="#030303" data-fill-palette-color="accent"></path><path d="M35.919 43.951l-4.397-5.538c-2.987 1.531-6.322 3.345-9.807 5.517-3.892 2.446-7.978 5.27-11.725 8.869-1.86 1.813-3.648 3.828-5.098 6.258-0.717 1.217-1.339 2.549-1.767 3.991-0.115 0.353-0.192 0.733-0.28 1.101-0.047 0.183-0.069 0.375-0.104 0.563l-0.102 0.681-0.003 0.832 0.023 1.226c0.107 1.477 0.501 3.049 1.285 4.42 0.766 1.383 1.916 2.446 3.06 3.128 2.327 1.363 4.509 1.586 6.388 1.697 3.773 0.115 6.669-0.5 8.695-0.902 0.631-0.134 1.162-0.256 1.612-0.361-5.88-0.309-9.543-1.719-11.51-2.787-0.562-0.285-1.083-0.605-1.528-0.977-0.205-0.159-0.317-0.263-0.317-0.263l0.038-0.003c-0.121-0.115-0.262-0.223-0.364-0.346-0.886-1.059-0.909-2.021-0.595-3.401 0.054-0.142 0.101-0.271 0.14-0.405l0.239-0.799 0.008-0.023c0.022-0.125-0.022 0.141-0.016 0.106l0.013-0.028 0.022-0.063 0.044-0.121c0.033-0.079 0.051-0.159 0.092-0.242 0.079-0.163 0.133-0.326 0.228-0.491 0.332-0.663 0.786-1.338 1.348-2.008 1.127-1.343 2.652-2.629 4.323-3.804 3.372-2.351 7.309-4.276 11.085-5.885 3.284-1.394 6.455-2.523 9.317-3.473L35.919 43.951z" fill="#030303" data-fill-palette-color="accent"></path></svg></g></svg></g><g id="text-0"><path d="M31.102 85.906l-2.347 6.316-19.239-7.151-2.261 7.151-5.968-2.218 7.63-20.528 5.967 2.218-3.021 7.062 13.62 5.061 3.654 0.919z" fill="#030303" data-fill-palette-color="accent"></path><path d="M43.852 63.533l-3.996 5.325-9.373-7.034-3.472-1.614-1.323-1.984 3.056-4.072 1.137-0.076c0 0 0.021-0.206 0.062-0.619 0.038-0.407 0.167-0.925 0.388-1.554 0.226-0.625 0.595-1.278 1.106-1.958v0c0.297-0.396 0.626-0.773 0.986-1.13 0.36-0.357 0.674-0.608 0.94-0.751v0l3.105-0.708 2.372 4.819-4.617 2.723-0.378 1.123z" fill="#030303" data-fill-palette-color="accent"></path><path d="M61.305 46.435v0c-0.861 0.649-1.747 1.125-2.66 1.427-0.916 0.297-1.827 0.301-2.733 0.011-0.902-0.284-1.766-0.974-2.592-2.07v0c-0.754-1-1.13-2.015-1.129-3.048 0.001-1.032 0.311-2.033 0.93-3.002 0.617-0.96 1.466-1.847 2.546-2.662v0c1.032-0.778 1.893-1.247 2.585-1.409 0.688-0.166 1.312-0.273 1.873-0.318v0l0.075-0.333c-0.451-0.599-0.876-1.062-1.274-1.391-0.4-0.319-0.857-0.448-1.373-0.386-0.519 0.056-1.158 0.371-1.918 0.943v0c-0.738 0.556-1.47 1.213-2.198 1.972-0.726 0.749-1.364 1.477-1.912 2.184-0.544 0.712-0.918 1.284-1.122 1.714v0l-3.379-4.482c0.449-0.683 1.176-1.553 2.18-2.612 1.003-1.05 2.343-2.207 4.021-3.473v0c1.791-1.35 3.379-2.196 4.765-2.537 1.386-0.341 2.627-0.263 3.724 0.235 1.095 0.507 2.086 1.349 2.973 2.525v0l2.999 3.977 2.88 2.569 0.729 2.217-5.107 3.851-1.106-1.467-0.42 0.077c-0.034 0.277-0.139 0.717-0.314 1.319-0.175 0.602-0.497 1.276-0.964 2.023-0.472 0.742-1.165 1.457-2.079 2.146zM60.896 40.606v0c0.534-0.403 0.959-0.802 1.272-1.198 0.314-0.396 0.528-0.7 0.644-0.914v0l-0.423-0.561c-0.197-0.262-0.571-0.374-1.122-0.337-0.546 0.043-1.207 0.357-1.981 0.941v0c-1.074 0.81-1.327 1.592-0.759 2.346v0c0.242 0.321 0.541 0.473 0.897 0.456 0.361-0.021 0.852-0.265 1.472-0.733z" fill="#030303" data-fill-palette-color="accent"></path><path d="M94.919 28.408l-7.436 2.554-8.625-10.585-2.291-4.352 6.733-2.313 5.74 10.377 0.713-0.245-1.809-11.726 6.686-2.296 0.876 4.837z" fill="#030303" data-fill-palette-color="accent"></path><path d="M120.754 24.731v0c-1.926 0.079-3.647-0.135-5.161-0.642-1.522-0.514-2.735-1.428-3.641-2.744-0.905-1.309-1.404-3.111-1.499-5.406v0c-0.068-1.645 0.155-3.068 0.669-4.268 0.514-1.194 1.23-2.178 2.149-2.953 0.919-0.775 1.958-1.354 3.115-1.736 1.156-0.389 2.36-0.61 3.611-0.661v0c2.14-0.088 3.801 0.058 4.982 0.438 1.174 0.374 1.954 0.677 2.339 0.909v0l2.121 5.872-0.657 2.358-11.598 0.478c0.212 0.916 0.705 1.669 1.48 2.261 0.775 0.591 2.022 0.851 3.741 0.78v0c1.344-0.055 2.499-0.254 3.463-0.595 0.958-0.334 1.706-0.626 2.245-0.876v0l0.207 5.016c-0.726 0.432-1.789 0.817-3.189 1.157-1.399 0.346-2.858 0.55-4.377 0.612zM117.126 13.976v0l5.126-0.964-0.397-1.592c-0.178-0.093-0.439-0.156-0.782-0.189-0.337-0.04-0.629-0.055-0.876-0.044v0c-0.702 0.029-1.278 0.203-1.727 0.523-0.449 0.32-0.782 0.689-1 1.107-0.224 0.425-0.338 0.811-0.344 1.159z" fill="#030303" data-fill-palette-color="accent"></path><path d="M149.858 27.343l-6.586-1.418 4.282-20.073 0.052-3.82 1.249-2.032 6.587 1.419z" fill="#030303" data-fill-palette-color="accent"></path><path d="M170.027 35.992l-6.235-3.436 9.887-17.94 1.482-3.46 1.431-1.826 5.901 3.252-4.9 8.891 8.169 4.503 4.9-8.891 5.901 3.252-6.8 12.338-0.911 2.445-4.755 8.627-6.235-3.436 4.774-8.663-8.17-4.502-1.085 1.97z" fill="#030303" data-fill-palette-color="accent"></path><path d="M197.268 57.184v0c-0.984-1.131-1.527-2.19-1.629-3.174-0.102-0.994 0.158-1.965 0.78-2.913 0.612-0.949 1.491-1.922 2.637-2.92v0l8.168-7.103 4.428 5.092-7.433 6.464c-0.697 0.606-1.124 1.217-1.28 1.832-0.157 0.615 0.002 1.196 0.476 1.742v0c0.444 0.51 1.063 0.788 1.857 0.834 0.803 0.047 1.619-0.29 2.447-1.011v0l7.123-6.194 4.428 5.092-8.82 7.67-2.305 3.042-2.241 0.911-4.158-4.781 1.387-1.206-0.108-0.399c-0.453-0.032-1.023-0.157-1.71-0.375-0.683-0.214-1.382-0.533-2.097-0.958-0.711-0.42-1.361-0.968-1.95-1.645z" fill="#030303" data-fill-palette-color="accent"></path><path d="M217.178 89.708v0c-0.465-1.105-0.739-2.024-0.823-2.759-0.078-0.737-0.081-1.298-0.011-1.684 0.073-0.379 0.109-0.569 0.109-0.569v0l-0.87 0.366-2.612-6.211 18.92-7.957 3.145-2.183 2.381-0.141 2.612 6.211-5.563 2.34-4.041 1.296-0.032 0.417c0.63 0.272 1.289 0.664 1.975 1.173 0.693 0.507 1.291 1.36 1.794 2.557v0c0.862 2.049 0.88 3.933 0.057 5.652-0.82 1.71-2.647 3.161-5.479 4.352v0c-2.117 0.89-3.949 1.316-5.498 1.277-1.549-0.039-2.819-0.434-3.81-1.186-0.989-0.746-1.741-1.73-2.254-2.951zM220.673 84.784v0c0.379 0.901 0.995 1.484 1.848 1.75 0.856 0.257 1.917 0.12 3.181-0.412v0c1.24-0.522 2.053-1.118 2.44-1.788 0.377-0.674 0.387-1.437 0.029-2.289v0l-1.536-1.631-6.183 2.6c0 0-0.023 0.151-0.07 0.455-0.047 0.303 0.05 0.741 0.291 1.315z" fill="#030303" data-fill-palette-color="accent"></path><path d="M14.53 171.002l-2.352-6.324 19.266-7.165-2.963-6.901 5.976-2.222 7.648 20.564-5.977 2.223-2.333-7.339-13.637 5.071-3.376 1.695z" fill="#030303" data-fill-palette-color="accent"></path><path d="M29.715 197.826l-4.009-5.34 9.388-7.047 2.527-2.889 2.275-0.716 3.062 4.079-0.238 1.121c0 0 0.19 0.075 0.57 0.225 0.375 0.154 0.834 0.425 1.376 0.813 0.546 0.393 1.075 0.93 1.585 1.61v0c0.297 0.396 0.567 0.817 0.81 1.262 0.243 0.446 0.395 0.817 0.458 1.113v0l-0.181 3.187-5.303 0.93-1.326-5.195-0.972-0.676z" fill="#030303" data-fill-palette-color="accent"></path><path d="M50.204 219.006v0c-0.861-0.649-1.562-1.37-2.103-2.164-0.543-0.803-0.8-1.68-0.77-2.631 0.029-0.951 0.457-1.974 1.283-3.069v0c0.754-1 1.627-1.641 2.62-1.923 0.998-0.279 2.046-0.256 3.142 0.068 1.102 0.328 2.193 0.899 3.274 1.713v0c1.037 0.782 1.728 1.483 2.073 2.104 0.345 0.621 0.617 1.195 0.815 1.722v0l0.347-0.028c0.451-0.599 0.778-1.132 0.98-1.6 0.201-0.477 0.201-0.955 0-1.434-0.197-0.484-0.675-1.012-1.434-1.584v0c-0.743-0.56-1.579-1.086-2.508-1.577-0.925-0.496-1.802-0.906-2.632-1.23-0.831-0.333-1.485-0.537-1.964-0.613v0l3.391-4.498c0.785 0.248 1.823 0.712 3.114 1.392 1.294 0.674 2.778 1.642 4.45 2.903v0c1.796 1.354 3.051 2.653 3.766 3.896 0.709 1.239 0.973 2.457 0.792 3.653-0.181 1.196-0.715 2.383-1.602 3.559v0l-3.005 3.984-1.686 3.47-1.929 1.325-5.123-3.863 1.106-1.468-0.19-0.382c-0.276 0.043-0.727 0.064-1.353 0.061-0.627-0.003-1.363-0.127-2.211-0.371-0.843-0.25-1.724-0.721-2.643-1.415zM55.702 217.002v0c0.54 0.407 1.043 0.707 1.51 0.9 0.463 0.198 0.813 0.323 1.049 0.376v0l0.43-0.569c0.197-0.262 0.203-0.652 0.015-1.171-0.191-0.513-0.675-1.062-1.45-1.647v0c-1.08-0.814-1.904-0.844-2.472-0.09v0c-0.242 0.321-0.303 0.652-0.183 0.993 0.114 0.338 0.481 0.74 1.101 1.208z" fill="#030303" data-fill-palette-color="accent"></path><path d="M89.178 239.05l-7.445-2.557-0.305-13.674 0.869-4.85 6.743 2.315-1.843 11.736 0.703 0.242 5.784-10.383 6.705 2.303-2.285 4.364z" fill="#030303" data-fill-palette-color="accent"></path><path d="M119.984 244.411v0c-1.92-0.079-3.617-0.437-5.091-1.074-1.481-0.631-2.619-1.639-3.413-3.025-0.794-1.386-1.143-3.23-1.049-5.531v0c0.068-1.645 0.407-3.045 1.018-4.199 0.61-1.147 1.405-2.069 2.385-2.766 0.98-0.703 2.066-1.198 3.257-1.483 1.191-0.293 2.409-0.413 3.653-0.362v0c2.154 0.089 3.8 0.371 4.94 0.847 1.146 0.469 1.902 0.839 2.266 1.108v0l1.63 6.037-0.848 2.286-11.618-0.479c0.136 0.937 0.565 1.732 1.289 2.385 0.723 0.653 1.948 1.015 3.673 1.086v0c1.351 0.056 2.518-0.044 3.5-0.298 0.989-0.261 1.762-0.493 2.32-0.698v0l-0.207 5.026c-0.765 0.364-1.86 0.66-3.283 0.89-1.423 0.229-2.897 0.313-4.422 0.25zM117.253 233.374v0l5.198-0.529-0.265-1.629c-0.17-0.107-0.424-0.192-0.763-0.253-0.332-0.067-0.625-0.106-0.88-0.116v0c-0.696-0.029-1.28 0.098-1.754 0.38-0.481 0.282-0.846 0.622-1.098 1.02-0.251 0.405-0.397 0.781-0.438 1.127z" fill="#030303" data-fill-palette-color="accent"></path><path d="M153.566 240.681l-6.597 1.42-4.363-20.087-1.526-3.513 0.302-2.366 6.597-1.419z" fill="#030303" data-fill-palette-color="accent"></path><path d="M178.532 230.243l-6.245 3.439-9.897-17.969-2.138-3.11-0.779-2.184 5.919-3.261 4.908 8.91 8.18-4.506-4.908-8.909 5.911-3.256 6.806 12.357 1.585 2.085 4.757 8.637-6.245 3.44-4.777-8.672-8.179 4.506 1.085 1.97z" fill="#030303" data-fill-palette-color="accent"></path><path d="M211.157 205.659v0c-0.984 1.131-1.962 1.816-2.932 2.054-0.961 0.238-1.956 0.117-2.986-0.362-1.025-0.474-2.113-1.213-3.264-2.214v0l-8.181-7.118 4.435-5.098 7.447 6.478c0.697 0.606 1.361 0.945 1.992 1.015 0.636 0.074 1.192-0.161 1.666-0.707v0c0.444-0.51 0.633-1.166 0.568-1.968-0.065-0.802-0.515-1.566-1.348-2.291v0l-7.128-6.202 4.435-5.098 8.833 7.685 3.34 1.867 1.213 2.094-4.158 4.78-1.387-1.206-0.394 0.163c0.037 0.458-0.006 1.042-0.127 1.752-0.117 0.706-0.336 1.442-0.658 2.21-0.322 0.767-0.777 1.489-1.366 2.166z" fill="#030303" data-fill-palette-color="accent"></path><path d="M234.165 168.175v0c-0.467 1.111-0.934 1.953-1.401 2.526-0.475 0.577-0.874 0.972-1.196 1.186-0.325 0.219-0.487 0.329-0.487 0.329v0l0.87 0.366-2.617 6.219-18.946-7.973-3.769-0.725-1.765-1.604 2.617-6.219 5.562 2.34 3.771 1.99 0.311-0.272c-0.243-0.647-0.423-1.394-0.538-2.242-0.122-0.85 0.071-1.877 0.577-3.08v0c0.862-2.048 2.196-3.379 4-3.992 1.802-0.607 4.123-0.313 6.961 0.881v0c2.116 0.891 3.705 1.904 4.767 3.041 1.055 1.134 1.661 2.319 1.817 3.554 0.158 1.229-0.02 2.454-0.534 3.675zM228.197 169.128v0c0.379-0.901 0.363-1.75-0.05-2.548-0.412-0.798-1.251-1.463-2.515-1.996v0c-1.246-0.525-2.246-0.687-2.998-0.488-0.746 0.202-1.299 0.732-1.66 1.589v0l-0.092 2.238 6.191 2.606c0 0 0.125-0.089 0.374-0.267 0.258-0.182 0.508-0.56 0.75-1.134z" fill="#030303" data-fill-palette-color="accent"></path><path d="M3.913 125.363c0-5.595 4.536-10.13 10.131-10.13 5.595 0 10.13 4.536 10.13 10.13 0 5.595-4.536 10.13-10.13 10.13-5.595 0-10.13-4.536-10.131-10.13z" fill="#030303" data-fill-palette-color="accent"></path><path d="M222.883 125.363c0-5.595 4.536-10.13 10.131-10.13 5.595 0 10.13 4.536 10.13 10.13 0 5.595-4.536 10.13-10.13 10.13-5.595 0-10.13-4.536-10.131-10.13z" fill="#030303" data-fill-palette-color="accent"></path></g><g id="text-1"></g></svg></g></svg></g></svg></g><defs></defs></svg><rect width="395.52" height="143.34379379252178" fill="none" stroke="none" visibility="hidden"></rect></g></svg></g></svg>